<svg xmlns="http://www.w3.org/2000/svg" width="788.9" height="333.04" viewBox="0 0 788.9 333.04"><path d="M-272.32,58.42V-4.6h-126.5V-70.38l149.96-192.28h50.14V-70.84h40.48V-4.6h-40.48V58.42ZM-326.14-70.84h62.56v-81.42Zm446.2-63.94q0,30.36-9.2,55.89T85.56-34.73A114.461,114.461,0,0,1,47.61-5.75,109.789,109.789,0,0,1,0,4.6,111.3,111.3,0,0,1-47.84-5.75,113.782,113.782,0,0,1-86.02-34.73a135.327,135.327,0,0,1-25.07-44.16q-8.97-25.53-8.97-55.89t8.97-55.89a135.327,135.327,0,0,1,25.07-44.16,116.488,116.488,0,0,1,38.18-29.21A109.264,109.264,0,0,1,0-274.62a107.787,107.787,0,0,1,47.61,10.58,117.224,117.224,0,0,1,37.95,29.21q16.1,18.63,25.3,44.16T120.06-134.78Zm-74.06,0q0-32.2-12.88-52.21T0-207q-21.16,0-33.81,20.01t-12.65,52.21q0,32.2,12.65,51.98T0-63.02q20.24,0,33.12-19.78T46-134.78ZM276,58.42V-4.6H149.5V-70.38L299.46-262.66H349.6V-70.84h40.48V-4.6H349.6V58.42ZM222.18-70.84h62.56v-81.42Z" transform="translate(398.82 274.62)" fill="#eef4f8"/></svg>