<svg xmlns="http://www.w3.org/2000/svg" width="28.325" height="20.366" viewBox="0 0 28.325 20.366"><path d="M15.29-54.833A5.847,5.847,0,0,1,10.969-56.5,5.847,5.847,0,0,1,9.3-60.824q0-3.337,2.781-7.317a27.455,27.455,0,0,1,7.4-7.06l1.284,1.284a23.027,23.027,0,0,0-2.824,3.509,5.409,5.409,0,0,0-1.027,2.653,1.817,1.817,0,0,0,.385,1.112,6.217,6.217,0,0,0,1.155,1.112,8.651,8.651,0,0,1,1.883,1.968,4.867,4.867,0,0,1,.685,2.738A5.931,5.931,0,0,1,19.4-56.5,5.493,5.493,0,0,1,15.29-54.833Zm16.6,0A5.847,5.847,0,0,1,27.57-56.5,5.847,5.847,0,0,1,25.9-60.824q0-3.337,2.781-7.317a27.455,27.455,0,0,1,7.4-7.06l1.284,1.284a23.026,23.026,0,0,0-2.824,3.509,5.409,5.409,0,0,0-1.027,2.653,1.816,1.816,0,0,0,.385,1.112,6.217,6.217,0,0,0,1.155,1.112,8.651,8.651,0,0,1,1.883,1.968,4.867,4.867,0,0,1,.685,2.738A5.931,5.931,0,0,1,36-56.5,5.493,5.493,0,0,1,31.891-54.833Z" transform="translate(-9.3 75.2)" fill="#42db0c"/></svg>